<svg version="1.1" id="Layer_1" xmlns="http://www.w3.org/2000/svg" x="0" y="0" viewBox="480 480 1040 1040" xml:space="preserve"><style>.st0{fill:#fff}.st1{fill:#0ff}</style><circle xmlns="http://www.w3.org/2000/svg" cx="1000" cy="1000" r="500" fill="#202336"/><path class="st0" d="M806.39 855.43L695 919.9V790.96zM807.01 1000L695 1064.47V935.53zM806.39 1144.57L695 1209.04V1080.1zM810.92 1007.82v128.94l-112.01-64.47zM810.92 718.67l.65 128.94-112.04-64.47zM810.92 863.24l.65 128.95-112.04-64.47zM810.92 1152.39l.65 128.94-112.04-64.47zM820.69 847.61V718.67l111.35 64.47z"/><path class="st1" d="M820.69 1152.39l111.35 64.47-111.35 64.47z"/><path class="st0" d="M825.25 855.43l111.35-64.47V919.9zM945.72 919.9V790.96l111.36 64.47zM945.72 935.53l111.36 64.47-111.36 64.47zM945.72 1080.1l111.36 64.47-111.36 64.47zM950.28 927.72l111.36-64.48v128.95zM1061.64 1007.82v128.94l-111.36-64.47zM1179.96 795.85v128.94l-111.35-64.47zM1300.47 860.32l-111.39 64.47-.5-128.94zM1189.08 1084.99l111.39 64.47-111.89 64.47zM1301.09 1004.89l-112.01 64.47V940.42zM1305 1012.7v128.94l-112.01-64.47zM1305 1157.94v128.95l-112.01-64.47zM1193.61 788.03L1305 723.56V852.5zM1305 868.13v128.94l-111.39-64.47z"/><path class="st1" d="M1367.77 632.23c-94.09-94.1-224.18-152.34-367.77-152.33-143.59-.01-273.68 58.23-367.77 152.33-94.1 94.09-152.34 224.18-152.33 367.77-.01 143.59 58.23 273.68 152.33 367.77 94.09 94.1 224.18 152.34 367.77 152.33 143.59.01 273.68-58.23 367.77-152.33 94.1-94.09 152.34-224.18 152.33-367.77.01-143.59-58.23-273.68-152.33-367.77zm-14.07 721.47c-90.55 90.53-215.54 146.5-353.7 146.51-138.16-.01-263.15-55.97-353.7-146.51-90.54-90.55-146.5-215.54-146.51-353.7.01-138.16 55.97-263.15 146.51-353.7 90.55-90.54 215.54-146.5 353.7-146.51 138.16.01 263.15 55.97 353.7 146.51 90.53 90.55 146.5 215.54 146.51 353.7-.01 138.16-55.98 263.15-146.51 353.7z"/></svg>