<?xml version="1.0" standalone="no"?>
<!DOCTYPE svg PUBLIC "-//W3C//DTD SVG 20010904//EN"
 "http://www.w3.org/TR/2001/REC-SVG-20010904/DTD/svg10.dtd">
<svg version="1.0" xmlns="http://www.w3.org/2000/svg"
 width="700.000000pt" height="700.000000pt" viewBox="0 0 700.000000 700.000000"
 preserveAspectRatio="xMidYMid meet">
<metadata>
Created by potrace 1.11, written by Peter Selinger 2001-2013
</metadata>
<g transform="translate(0.000000,700.000000) scale(0.100000,-0.100000)"
fill="#000000" stroke="none">
<path d="M3175 6775 c-176 -20 -213 -25 -340 -51 -113 -24 -341 -85 -395 -106
-14 -6 -59 -23 -100 -38 -331 -122 -680 -327 -975 -574 -100 -83 -346 -338
-433 -448 -364 -460 -593 -978 -681 -1539 -30 -191 -39 -298 -39 -509 -1 -163
4 -249 22 -420 14 -127 69 -395 106 -515 237 -764 676 -1364 1325 -1806 442
-302 984 -494 1545 -548 95 -10 539 -7 615 3 22 3 58 7 80 10 22 3 60 8 85 11
138 18 356 71 527 126 633 206 1169 584 1592 1124 257 328 479 784 580 1190
25 101 60 276 67 335 3 25 7 57 9 71 23 135 31 528 14 699 -63 639 -278 1195
-655 1696 -104 138 -156 197 -305 345 -365 366 -798 633 -1287 795 -156 51
-402 111 -537 129 -22 3 -74 10 -115 16 -111 16 -575 19 -705 4z"/>
</g>
</svg>
