<?xml version="1.0" standalone="no"?>
<!DOCTYPE svg PUBLIC "-//W3C//DTD SVG 20010904//EN"
 "http://www.w3.org/TR/2001/REC-SVG-20010904/DTD/svg10.dtd">
<svg version="1.0" xmlns="http://www.w3.org/2000/svg"
 width="700.000000pt" height="700.000000pt" viewBox="0 0 700.000000 700.000000"
 preserveAspectRatio="xMidYMid meet">
<metadata>
Created by potrace 1.11, written by Peter Selinger 2001-2013
</metadata>
<g transform="translate(0.000000,700.000000) scale(0.100000,-0.100000)"
fill="#000000" stroke="none">
<path d="M3279 6996 c-2 -2 -43 -7 -90 -10 -47 -4 -96 -9 -110 -11 -13 -3 -46
-7 -74 -10 -117 -10 -372 -68 -545 -122 -326 -102 -626 -246 -909 -436 -58
-38 -110 -74 -115 -78 -6 -5 -49 -39 -96 -75 -206 -161 -410 -363 -570 -563
-127 -159 -167 -218 -323 -476 -35 -58 -165 -331 -200 -421 -76 -193 -141
-407 -171 -564 -9 -41 -17 -84 -19 -95 -5 -20 -22 -131 -31 -195 -21 -146 -29
-583 -14 -740 5 -41 10 -100 13 -130 17 -170 87 -478 156 -682 145 -432 385
-850 683 -1191 100 -114 273 -284 361 -355 39 -31 77 -63 85 -71 26 -25 238
-181 246 -181 4 0 15 -7 24 -15 23 -21 186 -118 286 -170 48 -26 93 -49 98
-53 6 -4 13 -7 16 -7 3 -1 30 -13 60 -27 292 -136 654 -242 975 -284 22 -3 51
-7 65 -10 118 -19 555 -26 725 -11 85 8 114 11 195 23 19 3 51 7 70 10 117 15
371 78 527 130 222 74 546 222 696 317 32 21 61 37 66 37 5 0 11 3 13 8 2 4
41 32 88 63 434 285 832 720 1100 1198 54 98 152 301 165 342 4 13 11 29 15
34 8 10 22 48 85 233 34 99 103 358 110 414 2 15 6 35 9 45 3 10 8 43 11 73 4
30 8 57 10 60 2 3 6 35 10 70 3 36 8 79 11 95 3 17 7 143 9 280 3 222 -2 335
-19 470 -3 22 -8 58 -11 80 -27 218 -111 543 -202 775 -277 711 -790 1322
-1447 1723 -100 61 -319 176 -406 212 -36 15 -79 34 -95 41 -84 36 -320 116
-415 139 -70 18 -294 65 -330 70 -25 3 -56 8 -70 10 -14 2 -50 7 -80 10 -30 4
-73 9 -95 12 -49 5 -541 14 -546 9z"/>
</g>
</svg>
